<svg version="1.0" xmlns="http://www.w3.org/2000/svg" width="114.667" height="197.333" viewBox="0 0 86 148"><g fill="#333"><path d="M44.2.7c-4 1.6-5.5 12.9-2.7 19.7 1.4 3.2 1.4 3.9 0 6.6-1.9 3.7-1.9 7.5.1 13.4 2.2 6.4 1.4 12-3.1 23.7-2.1 5.2-4.3 11.6-5.1 14.4-1.6 5.9-1.9 15.9-.4 15 .6-.3 1-2.1 1-3.8.1-3.3 2.8-11.5 7.5-22.6 1.7-4.1 2.9-9 3.2-13.8l.6-7.5 3.4 3.8C55 56.8 60 65.1 60 68.5c0 1.8-1.4 5.8-3 8.9-2.8 5.3-3.2 8.5-1.3 11.9.2.4 3.2-1.7 6.5-4.8 3.4-3 6.5-5.5 6.9-5.5.9 0-.4 4.7-2.1 8.1-.7 1.3-4.6 5.9-8.6 10.2-8.7 9.4-10.2 12.3-12 23.6-.8 4.7-1.7 10-1.9 11.7-.8 4.7-4.1 8.4-7.5 8.4-2.1 0-3.8-1.1-6.8-4.5-4.2-4.8-6-5-3.7-.5 4.1 8 10.6 12.6 16.1 11.5 4.7-.8 6-3.9 7.8-18.3.8-6.6 2.1-13.3 3-14.9.8-1.5 4.4-6.1 8.1-10.2 7.4-8.2 10.4-13.7 10.5-19.2 0-3.7-1.8-14.8-2.7-16.2-.3-.5-1.8.4-3.4 1.9L63 73.4v-4.6c0-5.9-4.4-14.7-11.3-22.4C43.5 37.2 42 35 42 31.6c0-3 1.5-6.5 2.3-5.6.2.3 5.4 7.4 11.5 15.8 24.3 33.4 29.4 48.6 21.5 64.1-3.8 7.4-9.7 11.2-18 11.4l-5.8.2v3.5c0 3.1.3 3.5 3.8 4.3 12.2 2.9 23.9-5.5 26.8-19.2 4.1-20-4.6-41.6-30.8-76.4C42 14.8 39.7 8.1 44.1 2.6 45.2 1.2 46 0 45.8.1c-.2 0-.9.3-1.6.6z"/><path d="M30.2 34.2c-3.1 3.1.3 8.7 4.2 7.2 2.1-.8 2.1 2.4 0 5.4-.8 1.2-6.1 5.3-11.7 9.1C10.6 64.1 5.9 68.7 2.9 75.5c-2.8 6.1-3 15.7-.7 23 .9 2.7 1.9 8.1 2.2 12 1.1 13.2 7.6 22 16.4 22 3.7 0 4.8-.5 6.8-3 2.5-3.1 5.4-13.9 5.4-20 0-3 .9-4.6 5-8.9 4.1-4.3 5-5.9 5-8.9 0-2-.4-3.8-.8-4.1-.5-.3-3 1.7-5.7 4.4-4.6 4.6-4.9 5.3-6.6 14.4-2.2 11.5-4.2 16.2-8 18.1-7.4 3.9-13.6-1.1-15.4-12.3l-.7-4.3 3.7 2.6c4.5 3 5 3 7.5.5 3.6-3.6 1.6-15.8-3.3-19.8-2.6-2.2-6-1-7.8 2.6L4.2 97l-.6-3.4c-.4-1.9-.2-5.5.4-8.1 2.3-10.1 6.8-16 19.4-24.9 5.3-3.7 10.5-8 11.6-9.4l2.1-2.7-.6 2.5c-.4 1.4-2.3 6.1-4.2 10.5-7.8 17.7-10.5 27.2-11 39.1-.5 10.3.3 23.2 1.3 22.1.3-.2.6-6.9.8-14.8.2-13.6.4-15 3.8-24.4 2-5.5 5.3-13.8 7.4-18.5 3.6-7.9 3.9-9.2 3.9-17.5 0-7-.4-9.7-1.8-11.8-1.9-2.9-4.5-3.5-6.5-1.5zM15.4 99.6c1.3 3.4-2.3 6.2-6.4 4.9-2.6-.8-2.5-2.1.4-5 2.5-2.5 5-2.5 6 .1z"/><path d="M24 43c-1.5 2.8.4 6 3.6 6 2.9 0 4.7-3.5 3.2-6.3-1.2-2.3-5.5-2.2-6.8.3zM48.8 71.7c-2.7 3-4.8 6.2-4.8 7.1 0 1.9 8.5-7.2 9.6-10.1 1.1-3.3 0-2.6-4.8 3zM16.6 73.3C13.7 77.1 13 83 15.5 83c1.5 0 4-3.8 3.1-4.8-.3-.3-.6 0-.6.6 0 .7-.7 1.2-1.5 1.2-2.2 0-1.8-2 1-6.3 3.2-4.6 2.5-4.9-.9-.4zM47.7 92.7c-.2 1-.8 2.5-1.1 3.4-.5 1 .1 1.9 1.8 2.7 2.4 1 2.7.9 4.2-1.9.8-1.7 1.4-3.2 1.2-3.4-.6-.5-4.7-2.5-5.1-2.5-.3 0-.7.8-1 1.7zM36.4 104.4c-.7 1.8 2.7 8.5 6 11.5l2.5 2.4.7-2.7c.5-2.2-.1-3.5-4-7.6-3.3-3.5-4.8-4.6-5.2-3.6zM65.7 104.7c-.2 1-.8 2.5-1.1 3.4-.5 1 .1 1.9 1.8 2.7 2.4 1 2.7.9 4.2-1.9.8-1.7 1.4-3.2 1.2-3.4-.6-.5-4.7-2.5-5.1-2.5-.3 0-.7.8-1 1.7zM36.1 120.8l-2 2.9 2 1.9c1.9 1.7 2 1.7 4.5-.7l2.5-2.5-2.5-2.3-2.4-2.2-2.1 2.9zM35.1 130.8c-2 2.9-2 2.9-.1 4.7 1.9 1.7 2.1 1.7 4 0 2.5-2.3 2.5-3.7.1-5.9-1.8-1.6-2-1.6-4 1.2zM55.1 131.3c-.1.4.6 2.1 1.4 3.7 2 3.8 4.5 4 4.4.2 0-1.5-.3-2.1-.6-1.5-.8 2-2.9 1.5-4.1-1-.6-1.2-1.1-1.8-1.1-1.4z"/></g></svg>